{
    "asset" : {
        "generator" : "Khronos glTF Blender I/O v1.8.19",
        "version" : "2.0"
    },
    "scene" : 0,
    "scenes" : [
        {
            "name" : "Scene",
            "nodes" : [
                0
            ]
        }
    ],
    "nodes" : [
        {
            "mesh" : 0,
            "name" : "Mountain",
            "scale" : [
                0.6409568190574646,
                0.6409568190574646,
                0.6409568190574646
            ]
        }
    ],
    "materials" : [
        {
            "name" : "Landscape",
            "pbrMetallicRoughness" : {
                "baseColorTexture" : {
                    "index" : 0
                },
                "metallicFactor" : 0
            }
        }
    ],
    "meshes" : [
        {
            "name" : "Mountain",
            "primitives" : [
                {
                    "attributes" : {
                        "POSITION" : 0,
                        "NORMAL" : 1,
                        "TEXCOORD_0" : 2
                    },
                    "indices" : 3,
                    "material" : 0
                }
            ]
        }
    ],
    "textures" : [
        {
            "sampler" : 0,
            "source" : 0
        }
    ],
    "images" : [
        {
            "bufferView" : 4,
            "mimeType" : "image/png",
            "name" : "Image_0"
        }
    ],
    "accessors" : [
        {
            "bufferView" : 0,
            "componentType" : 5126,
            "count" : 2337,
            "max" : [
                300.239013671875,
                392.4289855957031,
                297.3070068359375
            ],
            "min" : [
                -287.20001220703125,
                -71.45240020751953,
                -296.2569885253906
            ],
            "type" : "VEC3"
        },
        {
            "bufferView" : 1,
            "componentType" : 5126,
            "count" : 2337,
            "type" : "VEC3"
        },
        {
            "bufferView" : 2,
            "componentType" : 5126,
            "count" : 2337,
            "type" : "VEC2"
        },
        {
            "bufferView" : 3,
            "componentType" : 5123,
            "count" : 2337,
            "type" : "SCALAR"
        }
    ],
    "bufferViews" : [
        {
            "buffer" : 0,
            "byteLength" : 28044,
            "byteOffset" : 0
        },
        {
            "buffer" : 0,
            "byteLength" : 28044,
            "byteOffset" : 28044
        },
        {
            "buffer" : 0,
            "byteLength" : 18696,
            "byteOffset" : 56088
        },
        {
            "buffer" : 0,
            "byteLength" : 4674,
            "byteOffset" : 74784
        },
        {
            "buffer" : 0,
            "byteLength" : 50590,
            "byteOffset" : 79460
        }
    ],
    "samplers" : [
        {
            "magFilter" : 9729,
            "minFilter" : 9987
        }
    ],
    "buffers" : [
        {
            "byteLength" : 130052,
            "uri" : "data:application/octet-stream;base64,"
        }
    ]
}
