{
    "asset" : {
        "generator" : "Khronos glTF Blender I/O v1.8.19",
        "version" : "2.0"
    },
    "scene" : 0,
    "scenes" : [
        {
            "name" : "Scene",
            "nodes" : [
                0
            ]
        }
    ],
    "nodes" : [
        {
            "mesh" : 0,
            "name" : "Pine_Tree_Snow",
            "rotation" : [
                -0.7071068286895752,
                0,
                0,
                0.7071067094802856
            ],
            "scale" : [
                229.04620361328125,
                229.04620361328125,
                229.04620361328125
            ],
            "translation" : [
                -0.003491126000881195,
                0,
                0.015668435022234917
            ]
        }
    ],
    "animations" : [
        {
            "channels" : [
                {
                    "sampler" : 0,
                    "target" : {
                        "node" : 0,
                        "path" : "weights"
                    }
                }
            ],
            "name" : "Sway.002Action.001",
            "samplers" : [
                {
                    "input" : 15,
                    "interpolation" : "LINEAR",
                    "output" : 16
                }
            ]
        }
    ],
    "materials" : [
        {
            "name" : "Wood.003",
            "pbrMetallicRoughness" : {
                "baseColorFactor" : [
                    0.12234093993902206,
                    0.05628808215260506,
                    0.04760899767279625,
                    1
                ],
                "metallicFactor" : 0.4000000059604645,
                "roughnessFactor" : 0.41508710384368896
            }
        },
        {
            "name" : "Snow",
            "pbrMetallicRoughness" : {
                "baseColorFactor" : [
                    0.4023091793060303,
                    0.3606286942958832,
                    0.4216921925544739,
                    1
                ],
                "metallicFactor" : 0.4000000059604645,
                "roughnessFactor" : 0.41508710384368896
            }
        },
        {
            "name" : "Green.001",
            "pbrMetallicRoughness" : {
                "baseColorFactor" : [
                    0.069953553378582,
                    0.12185650318861008,
                    0.04788811132311821,
                    1
                ],
                "metallicFactor" : 0.4000000059604645,
                "roughnessFactor" : 0.41508710384368896
            }
        }
    ],
    "meshes" : [
        {
            "extras" : {
                "targetNames" : [
                    "Sway2"
                ]
            },
            "name" : "Pine_Tree_Snow",
            "primitives" : [
                {
                    "attributes" : {
                        "POSITION" : 0,
                        "NORMAL" : 1
                    },
                    "indices" : 2,
                    "material" : 0,
                    "targets" : [
                        {
                            "POSITION" : 3,
                            "NORMAL" : 4
                        }
                    ]
                },
                {
                    "attributes" : {
                        "POSITION" : 5,
                        "NORMAL" : 6
                    },
                    "indices" : 7,
                    "material" : 1,
                    "targets" : [
                        {
                            "POSITION" : 8,
                            "NORMAL" : 9
                        }
                    ]
                },
                {
                    "attributes" : {
                        "POSITION" : 10,
                        "NORMAL" : 11
                    },
                    "indices" : 12,
                    "material" : 2,
                    "targets" : [
                        {
                            "POSITION" : 13,
                            "NORMAL" : 14
                        }
                    ]
                }
            ],
            "weights" : [
                0
            ]
        }
    ],
    "accessors" : [
        {
            "bufferView" : 0,
            "componentType" : 5126,
            "count" : 166,
            "max" : [
                0.002570822136476636,
                0.004492240492254496,
                0.031117621809244156
            ],
            "min" : [
                -0.0019870137330144644,
                -0.002848423086106777,
                8.365500434592832e-06
            ],
            "type" : "VEC3"
        },
        {
            "bufferView" : 1,
            "componentType" : 5126,
            "count" : 166,
            "type" : "VEC3"
        },
        {
            "bufferView" : 2,
            "componentType" : 5123,
            "count" : 240,
            "type" : "SCALAR"
        },
        {
            "bufferView" : 3,
            "componentType" : 5126,
            "count" : 166,
            "max" : [
                0.0002275787410326302,
                7.69768375903368e-05,
                0.0002737734466791153
            ],
            "min" : [
                -0.0004704078601207584,
                -0.0001738336286507547,
                -5.554221570491791e-05
            ],
            "type" : "VEC3"
        },
        {
            "bufferView" : 4,
            "componentType" : 5126,
            "count" : 166,
            "type" : "VEC3"
        },
        {
            "bufferView" : 5,
            "componentType" : 5126,
            "count" : 800,
            "max" : [
                0.0052817147225141525,
                0.009523521177470684,
                0.03343361243605614
            ],
            "min" : [
                -0.007258962374180555,
                -0.004406974650919437,
                0.015488031320273876
            ],
            "type" : "VEC3"
        },
        {
            "bufferView" : 6,
            "componentType" : 5126,
            "count" : 800,
            "type" : "VEC3"
        },
        {
            "bufferView" : 7,
            "componentType" : 5123,
            "count" : 1188,
            "type" : "SCALAR"
        },
        {
            "bufferView" : 8,
            "componentType" : 5126,
            "count" : 800,
            "max" : [
                0.0007160631939768791,
                0.0005858549848198891,
                0.001077219843864441
            ],
            "min" : [
                -0.0009510014206171036,
                -0.0008651361567899585,
                -0.0010905135422945023
            ],
            "type" : "VEC3"
        },
        {
            "bufferView" : 9,
            "componentType" : 5126,
            "count" : 800,
            "type" : "VEC3"
        },
        {
            "bufferView" : 10,
            "componentType" : 5126,
            "count" : 2465,
            "max" : [
                0.0052817147225141525,
                0.009523521177470684,
                0.03343361243605614
            ],
            "min" : [
                -0.007258962374180555,
                -0.004406974650919437,
                0.015343395061790943
            ],
            "type" : "VEC3"
        },
        {
            "bufferView" : 11,
            "componentType" : 5126,
            "count" : 2465,
            "type" : "VEC3"
        },
        {
            "bufferView" : 12,
            "componentType" : 5123,
            "count" : 3657,
            "type" : "SCALAR"
        },
        {
            "bufferView" : 13,
            "componentType" : 5126,
            "count" : 2465,
            "max" : [
                0.0007126014679670334,
                0.0006097229197621346,
                0.001077219843864441
            ],
            "min" : [
                -0.000990644097328186,
                -0.0008651361567899585,
                -0.0010905135422945023
            ],
            "type" : "VEC3"
        },
        {
            "bufferView" : 14,
            "componentType" : 5126,
            "count" : 2465,
            "type" : "VEC3"
        },
        {
            "bufferView" : 15,
            "componentType" : 5126,
            "count" : 161,
            "max" : [
                6.666666666666667
            ],
            "min" : [
                0
            ],
            "type" : "SCALAR"
        },
        {
            "bufferView" : 16,
            "componentType" : 5126,
            "count" : 161,
            "type" : "SCALAR"
        }
    ],
    "bufferViews" : [
        {
            "buffer" : 0,
            "byteLength" : 1992,
            "byteOffset" : 0
        },
        {
            "buffer" : 0,
            "byteLength" : 1992,
            "byteOffset" : 1992
        },
        {
            "buffer" : 0,
            "byteLength" : 480,
            "byteOffset" : 3984
        },
        {
            "buffer" : 0,
            "byteLength" : 1992,
            "byteOffset" : 4464
        },
        {
            "buffer" : 0,
            "byteLength" : 1992,
            "byteOffset" : 6456
        },
        {
            "buffer" : 0,
            "byteLength" : 9600,
            "byteOffset" : 8448
        },
        {
            "buffer" : 0,
            "byteLength" : 9600,
            "byteOffset" : 18048
        },
        {
            "buffer" : 0,
            "byteLength" : 2376,
            "byteOffset" : 27648
        },
        {
            "buffer" : 0,
            "byteLength" : 9600,
            "byteOffset" : 30024
        },
        {
            "buffer" : 0,
            "byteLength" : 9600,
            "byteOffset" : 39624
        },
        {
            "buffer" : 0,
            "byteLength" : 29580,
            "byteOffset" : 49224
        },
        {
            "buffer" : 0,
            "byteLength" : 29580,
            "byteOffset" : 78804
        },
        {
            "buffer" : 0,
            "byteLength" : 7314,
            "byteOffset" : 108384
        },
        {
            "buffer" : 0,
            "byteLength" : 29580,
            "byteOffset" : 115700
        },
        {
            "buffer" : 0,
            "byteLength" : 29580,
            "byteOffset" : 145280
        },
        {
            "buffer" : 0,
            "byteLength" : 644,
            "byteOffset" : 174860
        },
        {
            "buffer" : 0,
            "byteLength" : 644,
            "byteOffset" : 175504
        }
    ],
    "buffers" : [
        {
            "byteLength" : 176148,
            "uri" : "data:application/octet-stream;base64,"
        }
    ]
}
