{
    "asset" : {
        "generator" : "Khronos glTF Blender I/O v1.8.19",
        "version" : "2.0"
    },
    "scene" : 0,
    "scenes" : [
        {
            "name" : "Scene",
            "nodes" : [
                0
            ]
        }
    ],
    "nodes" : [
        {
            "mesh" : 0,
            "name" : "Sign",
            "scale" : [
                2.546882390975952,
                2.546882390975952,
                2.546882390975952
            ]
        }
    ],
    "materials" : [
        {
            "name" : "mat20",
            "pbrMetallicRoughness" : {
                "baseColorFactor" : [
                    0.1899999976158142,
                    0.09000000357627869,
                    0.05999999865889549,
                    1
                ],
                "metallicFactor" : 0
            }
        },
        {
            "name" : "mat19",
            "pbrMetallicRoughness" : {
                "baseColorFactor" : [
                    0.7400000095367432,
                    0.33000001311302185,
                    0.05999999865889549,
                    1
                ],
                "metallicFactor" : 0
            }
        }
    ],
    "meshes" : [
        {
            "name" : "Sign",
            "primitives" : [
                {
                    "attributes" : {
                        "POSITION" : 0,
                        "NORMAL" : 1
                    },
                    "indices" : 2,
                    "material" : 0
                },
                {
                    "attributes" : {
                        "POSITION" : 3,
                        "NORMAL" : 4
                    },
                    "indices" : 5,
                    "material" : 1
                }
            ]
        }
    ],
    "accessors" : [
        {
            "bufferView" : 0,
            "componentType" : 5126,
            "count" : 860,
            "max" : [
                0.5479480028152466,
                0.3538348972797394,
                0.027591019868850708
            ],
            "min" : [
                -0.535521924495697,
                -0.24271680414676666,
                -0.05297243967652321
            ],
            "type" : "VEC3"
        },
        {
            "bufferView" : 1,
            "componentType" : 5126,
            "count" : 860,
            "type" : "VEC3"
        },
        {
            "bufferView" : 2,
            "componentType" : 5123,
            "count" : 870,
            "type" : "SCALAR"
        },
        {
            "bufferView" : 3,
            "componentType" : 5126,
            "count" : 217,
            "max" : [
                0.04249626025557518,
                0.39208459854125977,
                0.17058199644088745
            ],
            "min" : [
                -0.1200748011469841,
                -0.9622713923454285,
                -0.0003552735142875463
            ],
            "type" : "VEC3"
        },
        {
            "bufferView" : 4,
            "componentType" : 5126,
            "count" : 217,
            "type" : "VEC3"
        },
        {
            "bufferView" : 5,
            "componentType" : 5123,
            "count" : 288,
            "type" : "SCALAR"
        }
    ],
    "bufferViews" : [
        {
            "buffer" : 0,
            "byteLength" : 10320,
            "byteOffset" : 0
        },
        {
            "buffer" : 0,
            "byteLength" : 10320,
            "byteOffset" : 10320
        },
        {
            "buffer" : 0,
            "byteLength" : 1740,
            "byteOffset" : 20640
        },
        {
            "buffer" : 0,
            "byteLength" : 2604,
            "byteOffset" : 22380
        },
        {
            "buffer" : 0,
            "byteLength" : 2604,
            "byteOffset" : 24984
        },
        {
            "buffer" : 0,
            "byteLength" : 576,
            "byteOffset" : 27588
        }
    ],
    "buffers" : [
        {
            "byteLength" : 28164,
            "uri" : "data:application/octet-stream;base64,"
        }
    ]
}
