{
    "asset" : {
        "generator" : "Khronos glTF Blender I/O v1.8.19",
        "version" : "2.0"
    },
    "scene" : 0,
    "scenes" : [
        {
            "name" : "Scene",
            "nodes" : [
                0
            ]
        }
    ],
    "nodes" : [
        {
            "mesh" : 0,
            "name" : "boulder"
        }
    ],
    "materials" : [
        {
            "name" : "None",
            "pbrMetallicRoughness" : {
                "baseColorTexture" : {
                    "index" : 0
                },
                "metallicFactor" : 0
            }
        }
    ],
    "meshes" : [
        {
            "name" : "boulder-Mesh",
            "primitives" : [
                {
                    "attributes" : {
                        "POSITION" : 0,
                        "NORMAL" : 1,
                        "TEXCOORD_0" : 2
                    },
                    "indices" : 3,
                    "material" : 0
                }
            ]
        }
    ],
    "textures" : [
        {
            "sampler" : 0,
            "source" : 0
        }
    ],
    "images" : [
        {
            "bufferView" : 4,
            "mimeType" : "image/png",
            "name" : "Image_0"
        }
    ],
    "accessors" : [
        {
            "bufferView" : 0,
            "componentType" : 5126,
            "count" : 586,
            "max" : [
                0.6723089814186096,
                0.6305720210075378,
                0.6683170199394226
            ],
            "min" : [
                -0.6483910083770752,
                -0.7075120210647583,
                -0.7334809899330139
            ],
            "type" : "VEC3"
        },
        {
            "bufferView" : 1,
            "componentType" : 5126,
            "count" : 586,
            "type" : "VEC3"
        },
        {
            "bufferView" : 2,
            "componentType" : 5126,
            "count" : 586,
            "type" : "VEC2"
        },
        {
            "bufferView" : 3,
            "componentType" : 5123,
            "count" : 588,
            "type" : "SCALAR"
        }
    ],
    "bufferViews" : [
        {
            "buffer" : 0,
            "byteLength" : 7032,
            "byteOffset" : 0
        },
        {
            "buffer" : 0,
            "byteLength" : 7032,
            "byteOffset" : 7032
        },
        {
            "buffer" : 0,
            "byteLength" : 4688,
            "byteOffset" : 14064
        },
        {
            "buffer" : 0,
            "byteLength" : 1176,
            "byteOffset" : 18752
        },
        {
            "buffer" : 0,
            "byteLength" : 121835,
            "byteOffset" : 19928
        }
    ],
    "samplers" : [
        {
            "magFilter" : 9729,
            "minFilter" : 9987
        }
    ],
    "buffers" : [
        {
            "byteLength" : 141764,
            "uri" : "data:application/octet-stream;base64,"
        }
    ]
}
