{
    "asset" : {
        "generator" : "Khronos glTF Blender I/O v1.8.19",
        "version" : "2.0"
    },
    "scene" : 0,
    "scenes" : [
        {
            "name" : "Scene",
            "nodes" : [
                0
            ]
        }
    ],
    "nodes" : [
        {
            "mesh" : 0,
            "name" : "Node",
            "scale" : [
                5.573660373687744,
                5.573660373687744,
                5.573660373687744
            ]
        }
    ],
    "materials" : [
        {
            "name" : "mat15",
            "pbrMetallicRoughness" : {
                "baseColorFactor" : [
                    0.6299999952316284,
                    0.699999988079071,
                    0.7200000286102295,
                    1
                ],
                "metallicFactor" : 0
            }
        }
    ],
    "meshes" : [
        {
            "name" : "Node-Mesh",
            "primitives" : [
                {
                    "attributes" : {
                        "POSITION" : 0,
                        "NORMAL" : 1
                    },
                    "indices" : 2,
                    "material" : 0
                }
            ]
        }
    ],
    "accessors" : [
        {
            "bufferView" : 0,
            "componentType" : 5126,
            "count" : 1852,
            "max" : [
                0.11694909632205963,
                0.0430757999420166,
                0.057167891412973404
            ],
            "min" : [
                -0.12607060372829437,
                -0.02141606993973255,
                -0.06966561079025269
            ],
            "type" : "VEC3"
        },
        {
            "bufferView" : 1,
            "componentType" : 5126,
            "count" : 1852,
            "type" : "VEC3"
        },
        {
            "bufferView" : 2,
            "componentType" : 5123,
            "count" : 1866,
            "type" : "SCALAR"
        }
    ],
    "bufferViews" : [
        {
            "buffer" : 0,
            "byteLength" : 22224,
            "byteOffset" : 0
        },
        {
            "buffer" : 0,
            "byteLength" : 22224,
            "byteOffset" : 22224
        },
        {
            "buffer" : 0,
            "byteLength" : 3732,
            "byteOffset" : 44448
        }
    ],
    "buffers" : [
        {
            "byteLength" : 48180,
            "uri" : "data:application/octet-stream;base64,"
        }
    ]
}
