{
    "asset" : {
        "generator" : "Khronos glTF Blender I/O v1.8.19",
        "version" : "2.0"
    },
    "scene" : 0,
    "scenes" : [
        {
            "name" : "Scene",
            "nodes" : [
                0
            ]
        }
    ],
    "nodes" : [
        {
            "mesh" : 0,
            "name" : "Bush",
            "rotation" : [
                -0.7071068286895752,
                0,
                0,
                0.7071067094802856
            ],
            "scale" : [
                100,
                100,
                100
            ]
        }
    ],
    "materials" : [
        {
            "name" : "Green",
            "pbrMetallicRoughness" : {
                "baseColorFactor" : [
                    0.069953553378582,
                    0.12185650318861008,
                    0.04788811132311821,
                    1
                ],
                "metallicFactor" : 0.4000000059604645,
                "roughnessFactor" : 0.41508710384368896
            }
        }
    ],
    "meshes" : [
        {
            "name" : "Bush_1",
            "primitives" : [
                {
                    "attributes" : {
                        "POSITION" : 0,
                        "NORMAL" : 1
                    },
                    "indices" : 2,
                    "material" : 0
                }
            ]
        }
    ],
    "accessors" : [
        {
            "bufferView" : 0,
            "componentType" : 5126,
            "count" : 730,
            "max" : [
                0.006642142776399851,
                0.008450131863355637,
                0.01205482892692089
            ],
            "min" : [
                -0.006642142776399851,
                -0.008450130932033062,
                -0.00036264656228013337
            ],
            "type" : "VEC3"
        },
        {
            "bufferView" : 1,
            "componentType" : 5126,
            "count" : 730,
            "type" : "VEC3"
        },
        {
            "bufferView" : 2,
            "componentType" : 5123,
            "count" : 1092,
            "type" : "SCALAR"
        }
    ],
    "bufferViews" : [
        {
            "buffer" : 0,
            "byteLength" : 8760,
            "byteOffset" : 0
        },
        {
            "buffer" : 0,
            "byteLength" : 8760,
            "byteOffset" : 8760
        },
        {
            "buffer" : 0,
            "byteLength" : 2184,
            "byteOffset" : 17520
        }
    ],
    "buffers" : [
        {
            "byteLength" : 19704,
            "uri" : "data:application/octet-stream;base64,"
        }
    ]
}
