{
    "asset" : {
        "generator" : "Khronos glTF Blender I/O v1.8.19",
        "version" : "2.0"
    },
    "scene" : 0,
    "scenes" : [
        {
            "name" : "Scene",
            "nodes" : [
                0
            ]
        }
    ],
    "nodes" : [
        {
            "mesh" : 0,
            "name" : "Bush_Berry",
            "rotation" : [
                -0.7071068286895752,
                0,
                0,
                0.7071067094802856
            ],
            "scale" : [
                100,
                100,
                100
            ]
        }
    ],
    "materials" : [
        {
            "name" : "Green.002",
            "pbrMetallicRoughness" : {
                "baseColorFactor" : [
                    0.069953553378582,
                    0.12185650318861008,
                    0.04788811132311821,
                    1
                ],
                "metallicFactor" : 0.4000000059604645,
                "roughnessFactor" : 0.41508710384368896
            }
        },
        {
            "name" : "Berry",
            "pbrMetallicRoughness" : {
                "baseColorFactor" : [
                    0.37375885248184204,
                    0.02162562869489193,
                    0.030570516362786293,
                    1
                ],
                "metallicFactor" : 0.4000000059604645,
                "roughnessFactor" : 0.41508710384368896
            }
        }
    ],
    "meshes" : [
        {
            "name" : "BushBerries_2",
            "primitives" : [
                {
                    "attributes" : {
                        "POSITION" : 0,
                        "NORMAL" : 1
                    },
                    "indices" : 2,
                    "material" : 0
                },
                {
                    "attributes" : {
                        "POSITION" : 3,
                        "NORMAL" : 4
                    },
                    "indices" : 5,
                    "material" : 1
                }
            ]
        }
    ],
    "accessors" : [
        {
            "bufferView" : 0,
            "componentType" : 5126,
            "count" : 535,
            "max" : [
                0.006693665869534016,
                0.006672404706478119,
                0.010717141442000866
            ],
            "min" : [
                -0.006693665869534016,
                -0.006512570660561323,
                -0.0005808180430904031
            ],
            "type" : "VEC3"
        },
        {
            "bufferView" : 1,
            "componentType" : 5126,
            "count" : 535,
            "type" : "VEC3"
        },
        {
            "bufferView" : 2,
            "componentType" : 5123,
            "count" : 801,
            "type" : "SCALAR"
        },
        {
            "bufferView" : 3,
            "componentType" : 5126,
            "count" : 1056,
            "max" : [
                0.005449358839541674,
                0.006045944057404995,
                0.009916689246892929
            ],
            "min" : [
                -0.006131994538009167,
                -0.006672404706478119,
                0.0007610678439959884
            ],
            "type" : "VEC3"
        },
        {
            "bufferView" : 4,
            "componentType" : 5126,
            "count" : 1056,
            "type" : "VEC3"
        },
        {
            "bufferView" : 5,
            "componentType" : 5123,
            "count" : 1584,
            "type" : "SCALAR"
        }
    ],
    "bufferViews" : [
        {
            "buffer" : 0,
            "byteLength" : 6420,
            "byteOffset" : 0
        },
        {
            "buffer" : 0,
            "byteLength" : 6420,
            "byteOffset" : 6420
        },
        {
            "buffer" : 0,
            "byteLength" : 1602,
            "byteOffset" : 12840
        },
        {
            "buffer" : 0,
            "byteLength" : 12672,
            "byteOffset" : 14444
        },
        {
            "buffer" : 0,
            "byteLength" : 12672,
            "byteOffset" : 27116
        },
        {
            "buffer" : 0,
            "byteLength" : 3168,
            "byteOffset" : 39788
        }
    ],
    "buffers" : [
        {
            "byteLength" : 42956,
            "uri" : "data:application/octet-stream;base64,"
        }
    ]
}
