{
    "asset" : {
        "generator" : "Khronos glTF Blender I/O v1.8.19",
        "version" : "2.0"
    },
    "scene" : 0,
    "scenes" : [
        {
            "name" : "Scene",
            "nodes" : [
                0
            ]
        }
    ],
    "nodes" : [
        {
            "mesh" : 0,
            "name" : "Pine_Tree_Fall",
            "rotation" : [
                -0.7071068286895752,
                0,
                0,
                0.7071067094802856
            ],
            "scale" : [
                235.9480438232422,
                235.9480438232422,
                235.9480438232422
            ],
            "translation" : [
                -0.003491126000881195,
                0,
                0.015668435022234917
            ]
        }
    ],
    "animations" : [
        {
            "channels" : [
                {
                    "sampler" : 0,
                    "target" : {
                        "node" : 0,
                        "path" : "weights"
                    }
                }
            ],
            "name" : "Sway.001Action",
            "samplers" : [
                {
                    "input" : 15,
                    "interpolation" : "LINEAR",
                    "output" : 16
                }
            ]
        }
    ],
    "materials" : [
        {
            "name" : "Wood.002",
            "pbrMetallicRoughness" : {
                "baseColorFactor" : [
                    0.12234093993902206,
                    0.05628808215260506,
                    0.04760899767279625,
                    1
                ],
                "metallicFactor" : 0.4000000059604645,
                "roughnessFactor" : 0.41508710384368896
            }
        },
        {
            "name" : "Orange.001",
            "pbrMetallicRoughness" : {
                "baseColorFactor" : [
                    0.39753589034080505,
                    0.15940465033054352,
                    0.05872540548443794,
                    1
                ],
                "metallicFactor" : 0.4000000059604645,
                "roughnessFactor" : 0.41508710384368896
            }
        },
        {
            "name" : "LightOrange.001",
            "pbrMetallicRoughness" : {
                "baseColorFactor" : [
                    0.4390780031681061,
                    0.26335248351097107,
                    0.08413796871900558,
                    1
                ],
                "metallicFactor" : 0.4000000059604645,
                "roughnessFactor" : 0.41508710384368896
            }
        }
    ],
    "meshes" : [
        {
            "extras" : {
                "targetNames" : [
                    "Sway"
                ]
            },
            "name" : "Pine_Tree_Fall",
            "primitives" : [
                {
                    "attributes" : {
                        "POSITION" : 0,
                        "NORMAL" : 1
                    },
                    "indices" : 2,
                    "material" : 0,
                    "targets" : [
                        {
                            "POSITION" : 3,
                            "NORMAL" : 4
                        }
                    ]
                },
                {
                    "attributes" : {
                        "POSITION" : 5,
                        "NORMAL" : 6
                    },
                    "indices" : 7,
                    "material" : 1,
                    "targets" : [
                        {
                            "POSITION" : 8,
                            "NORMAL" : 9
                        }
                    ]
                },
                {
                    "attributes" : {
                        "POSITION" : 10,
                        "NORMAL" : 11
                    },
                    "indices" : 12,
                    "material" : 2,
                    "targets" : [
                        {
                            "POSITION" : 13,
                            "NORMAL" : 14
                        }
                    ]
                }
            ],
            "weights" : [
                0
            ]
        }
    ],
    "accessors" : [
        {
            "bufferView" : 0,
            "componentType" : 5126,
            "count" : 166,
            "max" : [
                0.002570822136476636,
                0.004487772472202778,
                0.030784981325268745
            ],
            "min" : [
                -0.0019870137330144644,
                -0.002852891106158495,
                8.365500434592832e-06
            ],
            "type" : "VEC3"
        },
        {
            "bufferView" : 1,
            "componentType" : 5126,
            "count" : 166,
            "type" : "VEC3"
        },
        {
            "bufferView" : 2,
            "componentType" : 5123,
            "count" : 240,
            "type" : "SCALAR"
        },
        {
            "bufferView" : 3,
            "componentType" : 5126,
            "count" : 166,
            "max" : [
                8.21348512545228e-05,
                0.00035971240140497684,
                0.00018559210002422333
            ],
            "min" : [
                -0.00042542663868516684,
                -0.002525609452277422,
                -0.00023533999046776444
            ],
            "type" : "VEC3"
        },
        {
            "bufferView" : 4,
            "componentType" : 5126,
            "count" : 166,
            "type" : "VEC3"
        },
        {
            "bufferView" : 5,
            "componentType" : 5126,
            "count" : 2650,
            "max" : [
                0.010962589643895626,
                0.009352616034448147,
                0.026416506618261337
            ],
            "min" : [
                -0.010676000267267227,
                -0.010187081061303616,
                0.0020430239383131266
            ],
            "type" : "VEC3"
        },
        {
            "bufferView" : 6,
            "componentType" : 5126,
            "count" : 2650,
            "type" : "VEC3"
        },
        {
            "bufferView" : 7,
            "componentType" : 5123,
            "count" : 3936,
            "type" : "SCALAR"
        },
        {
            "bufferView" : 8,
            "componentType" : 5126,
            "count" : 2650,
            "max" : [
                0.0005276501178741455,
                0.0008627176284790039,
                0.0008704124484211206
            ],
            "min" : [
                -0.0009377296082675457,
                -0.0026989183388650417,
                -0.0009192349389195442
            ],
            "type" : "VEC3"
        },
        {
            "bufferView" : 9,
            "componentType" : 5126,
            "count" : 2650,
            "type" : "VEC3"
        },
        {
            "bufferView" : 10,
            "componentType" : 5126,
            "count" : 2011,
            "max" : [
                0.006968960165977478,
                0.00867438968271017,
                0.03305245563387871
            ],
            "min" : [
                -0.0062756226398050785,
                -0.0037386720068752766,
                0.013003423810005188
            ],
            "type" : "VEC3"
        },
        {
            "bufferView" : 11,
            "componentType" : 5126,
            "count" : 2011,
            "type" : "VEC3"
        },
        {
            "bufferView" : 12,
            "componentType" : 5123,
            "count" : 2973,
            "type" : "SCALAR"
        },
        {
            "bufferView" : 13,
            "componentType" : 5126,
            "count" : 2011,
            "max" : [
                -5.519716069102287e-05,
                0.0006261051166802645,
                0.0010769721120595932
            ],
            "min" : [
                -0.0007666434394195676,
                -0.0032990318723022938,
                -0.0009547453373670578
            ],
            "type" : "VEC3"
        },
        {
            "bufferView" : 14,
            "componentType" : 5126,
            "count" : 2011,
            "type" : "VEC3"
        },
        {
            "bufferView" : 15,
            "componentType" : 5126,
            "count" : 201,
            "max" : [
                8.333333333333334
            ],
            "min" : [
                0
            ],
            "type" : "SCALAR"
        },
        {
            "bufferView" : 16,
            "componentType" : 5126,
            "count" : 201,
            "type" : "SCALAR"
        }
    ],
    "bufferViews" : [
        {
            "buffer" : 0,
            "byteLength" : 1992,
            "byteOffset" : 0
        },
        {
            "buffer" : 0,
            "byteLength" : 1992,
            "byteOffset" : 1992
        },
        {
            "buffer" : 0,
            "byteLength" : 480,
            "byteOffset" : 3984
        },
        {
            "buffer" : 0,
            "byteLength" : 1992,
            "byteOffset" : 4464
        },
        {
            "buffer" : 0,
            "byteLength" : 1992,
            "byteOffset" : 6456
        },
        {
            "buffer" : 0,
            "byteLength" : 31800,
            "byteOffset" : 8448
        },
        {
            "buffer" : 0,
            "byteLength" : 31800,
            "byteOffset" : 40248
        },
        {
            "buffer" : 0,
            "byteLength" : 7872,
            "byteOffset" : 72048
        },
        {
            "buffer" : 0,
            "byteLength" : 31800,
            "byteOffset" : 79920
        },
        {
            "buffer" : 0,
            "byteLength" : 31800,
            "byteOffset" : 111720
        },
        {
            "buffer" : 0,
            "byteLength" : 24132,
            "byteOffset" : 143520
        },
        {
            "buffer" : 0,
            "byteLength" : 24132,
            "byteOffset" : 167652
        },
        {
            "buffer" : 0,
            "byteLength" : 5946,
            "byteOffset" : 191784
        },
        {
            "buffer" : 0,
            "byteLength" : 24132,
            "byteOffset" : 197732
        },
        {
            "buffer" : 0,
            "byteLength" : 24132,
            "byteOffset" : 221864
        },
        {
            "buffer" : 0,
            "byteLength" : 804,
            "byteOffset" : 245996
        },
        {
            "buffer" : 0,
            "byteLength" : 804,
            "byteOffset" : 246800
        }
    ],
    "buffers" : [
        {
            "byteLength" : 247604,
            "uri" : "data:application/octet-stream;base64,"
        }
    ]
}
