{
    "asset" : {
        "generator" : "Khronos glTF Blender I/O v1.8.19",
        "version" : "2.0"
    },
    "scene" : 0,
    "scenes" : [
        {
            "name" : "Scene",
            "nodes" : [
                0
            ]
        }
    ],
    "nodes" : [
        {
            "mesh" : 0,
            "name" : "Pine_Tree_Fall",
            "rotation" : [
                -0.7071068286895752,
                0,
                0,
                0.7071067094802856
            ],
            "scale" : [
                235.9480438232422,
                235.9480438232422,
                235.9480438232422
            ],
            "translation" : [
                -0.003491126000881195,
                0,
                0.015668435022234917
            ]
        }
    ],
    "materials" : [
        {
            "name" : "Wood.002",
            "pbrMetallicRoughness" : {
                "baseColorFactor" : [
                    0.12234093993902206,
                    0.05628808215260506,
                    0.04760899767279625,
                    1
                ],
                "metallicFactor" : 0.4000000059604645,
                "roughnessFactor" : 0.41508710384368896
            }
        },
        {
            "name" : "Orange.001",
            "pbrMetallicRoughness" : {
                "baseColorFactor" : [
                    0.39753589034080505,
                    0.15940465033054352,
                    0.05872540548443794,
                    1
                ],
                "metallicFactor" : 0.4000000059604645,
                "roughnessFactor" : 0.41508710384368896
            }
        },
        {
            "name" : "LightOrange.001",
            "pbrMetallicRoughness" : {
                "baseColorFactor" : [
                    0.4390780031681061,
                    0.26335248351097107,
                    0.08413796871900558,
                    1
                ],
                "metallicFactor" : 0.4000000059604645,
                "roughnessFactor" : 0.41508710384368896
            }
        }
    ],
    "meshes" : [
        {
            "name" : "PineTree_Autumn_3",
            "primitives" : [
                {
                    "attributes" : {
                        "POSITION" : 0,
                        "NORMAL" : 1
                    },
                    "indices" : 2,
                    "material" : 0
                },
                {
                    "attributes" : {
                        "POSITION" : 3,
                        "NORMAL" : 4
                    },
                    "indices" : 5,
                    "material" : 1
                },
                {
                    "attributes" : {
                        "POSITION" : 6,
                        "NORMAL" : 7
                    },
                    "indices" : 8,
                    "material" : 2
                }
            ]
        }
    ],
    "accessors" : [
        {
            "bufferView" : 0,
            "componentType" : 5126,
            "count" : 166,
            "max" : [
                0.002570822136476636,
                0.004487772472202778,
                0.030784981325268745
            ],
            "min" : [
                -0.0019870137330144644,
                -0.002852891106158495,
                8.365500434592832e-06
            ],
            "type" : "VEC3"
        },
        {
            "bufferView" : 1,
            "componentType" : 5126,
            "count" : 166,
            "type" : "VEC3"
        },
        {
            "bufferView" : 2,
            "componentType" : 5123,
            "count" : 240,
            "type" : "SCALAR"
        },
        {
            "bufferView" : 3,
            "componentType" : 5126,
            "count" : 2650,
            "max" : [
                0.010962589643895626,
                0.009352616034448147,
                0.026416506618261337
            ],
            "min" : [
                -0.010676000267267227,
                -0.010187081061303616,
                0.0020430239383131266
            ],
            "type" : "VEC3"
        },
        {
            "bufferView" : 4,
            "componentType" : 5126,
            "count" : 2650,
            "type" : "VEC3"
        },
        {
            "bufferView" : 5,
            "componentType" : 5123,
            "count" : 3936,
            "type" : "SCALAR"
        },
        {
            "bufferView" : 6,
            "componentType" : 5126,
            "count" : 2011,
            "max" : [
                0.006968960165977478,
                0.00867438968271017,
                0.03305245563387871
            ],
            "min" : [
                -0.0062756226398050785,
                -0.0037386720068752766,
                0.013003423810005188
            ],
            "type" : "VEC3"
        },
        {
            "bufferView" : 7,
            "componentType" : 5126,
            "count" : 2011,
            "type" : "VEC3"
        },
        {
            "bufferView" : 8,
            "componentType" : 5123,
            "count" : 2973,
            "type" : "SCALAR"
        }
    ],
    "bufferViews" : [
        {
            "buffer" : 0,
            "byteLength" : 1992,
            "byteOffset" : 0
        },
        {
            "buffer" : 0,
            "byteLength" : 1992,
            "byteOffset" : 1992
        },
        {
            "buffer" : 0,
            "byteLength" : 480,
            "byteOffset" : 3984
        },
        {
            "buffer" : 0,
            "byteLength" : 31800,
            "byteOffset" : 4464
        },
        {
            "buffer" : 0,
            "byteLength" : 31800,
            "byteOffset" : 36264
        },
        {
            "buffer" : 0,
            "byteLength" : 7872,
            "byteOffset" : 68064
        },
        {
            "buffer" : 0,
            "byteLength" : 24132,
            "byteOffset" : 75936
        },
        {
            "buffer" : 0,
            "byteLength" : 24132,
            "byteOffset" : 100068
        },
        {
            "buffer" : 0,
            "byteLength" : 5946,
            "byteOffset" : 124200
        }
    ],
    "buffers" : [
        {
            "byteLength" : 130148,
            "uri" : "data:application/octet-stream;base64,"
        }
    ]
}
