{
    "asset" : {
        "generator" : "Khronos glTF Blender I/O v1.8.19",
        "version" : "2.0"
    },
    "scene" : 0,
    "scenes" : [
        {
            "name" : "Scene",
            "nodes" : [
                0
            ]
        }
    ],
    "nodes" : [
        {
            "mesh" : 0,
            "name" : "Pine_Tree_Snow",
            "rotation" : [
                -0.7071068286895752,
                0,
                0,
                0.7071067094802856
            ],
            "scale" : [
                229.04620361328125,
                229.04620361328125,
                229.04620361328125
            ],
            "translation" : [
                -0.003491126000881195,
                0,
                0.015668435022234917
            ]
        }
    ],
    "materials" : [
        {
            "name" : "Wood.003",
            "pbrMetallicRoughness" : {
                "baseColorFactor" : [
                    0.12234093993902206,
                    0.05628808215260506,
                    0.04760899767279625,
                    1
                ],
                "metallicFactor" : 0.4000000059604645,
                "roughnessFactor" : 0.41508710384368896
            }
        },
        {
            "name" : "Snow",
            "pbrMetallicRoughness" : {
                "baseColorFactor" : [
                    0.4023091793060303,
                    0.3606286942958832,
                    0.4216921925544739,
                    1
                ],
                "metallicFactor" : 0.4000000059604645,
                "roughnessFactor" : 0.41508710384368896
            }
        },
        {
            "name" : "Green.001",
            "pbrMetallicRoughness" : {
                "baseColorFactor" : [
                    0.069953553378582,
                    0.12185650318861008,
                    0.04788811132311821,
                    1
                ],
                "metallicFactor" : 0.4000000059604645,
                "roughnessFactor" : 0.41508710384368896
            }
        }
    ],
    "meshes" : [
        {
            "name" : "PineTree_Snow_4",
            "primitives" : [
                {
                    "attributes" : {
                        "POSITION" : 0,
                        "NORMAL" : 1
                    },
                    "indices" : 2,
                    "material" : 0
                },
                {
                    "attributes" : {
                        "POSITION" : 3,
                        "NORMAL" : 4
                    },
                    "indices" : 5,
                    "material" : 1
                },
                {
                    "attributes" : {
                        "POSITION" : 6,
                        "NORMAL" : 7
                    },
                    "indices" : 8,
                    "material" : 2
                }
            ]
        }
    ],
    "accessors" : [
        {
            "bufferView" : 0,
            "componentType" : 5126,
            "count" : 166,
            "max" : [
                0.002570822136476636,
                0.004492240492254496,
                0.031117621809244156
            ],
            "min" : [
                -0.0019870137330144644,
                -0.002848423086106777,
                8.365500434592832e-06
            ],
            "type" : "VEC3"
        },
        {
            "bufferView" : 1,
            "componentType" : 5126,
            "count" : 166,
            "type" : "VEC3"
        },
        {
            "bufferView" : 2,
            "componentType" : 5123,
            "count" : 240,
            "type" : "SCALAR"
        },
        {
            "bufferView" : 3,
            "componentType" : 5126,
            "count" : 800,
            "max" : [
                0.0052817147225141525,
                0.009523521177470684,
                0.03343361243605614
            ],
            "min" : [
                -0.007258962374180555,
                -0.004406974650919437,
                0.015488031320273876
            ],
            "type" : "VEC3"
        },
        {
            "bufferView" : 4,
            "componentType" : 5126,
            "count" : 800,
            "type" : "VEC3"
        },
        {
            "bufferView" : 5,
            "componentType" : 5123,
            "count" : 1188,
            "type" : "SCALAR"
        },
        {
            "bufferView" : 6,
            "componentType" : 5126,
            "count" : 2465,
            "max" : [
                0.0052817147225141525,
                0.009523521177470684,
                0.03343361243605614
            ],
            "min" : [
                -0.007258962374180555,
                -0.004406974650919437,
                0.015343395061790943
            ],
            "type" : "VEC3"
        },
        {
            "bufferView" : 7,
            "componentType" : 5126,
            "count" : 2465,
            "type" : "VEC3"
        },
        {
            "bufferView" : 8,
            "componentType" : 5123,
            "count" : 3657,
            "type" : "SCALAR"
        }
    ],
    "bufferViews" : [
        {
            "buffer" : 0,
            "byteLength" : 1992,
            "byteOffset" : 0
        },
        {
            "buffer" : 0,
            "byteLength" : 1992,
            "byteOffset" : 1992
        },
        {
            "buffer" : 0,
            "byteLength" : 480,
            "byteOffset" : 3984
        },
        {
            "buffer" : 0,
            "byteLength" : 9600,
            "byteOffset" : 4464
        },
        {
            "buffer" : 0,
            "byteLength" : 9600,
            "byteOffset" : 14064
        },
        {
            "buffer" : 0,
            "byteLength" : 2376,
            "byteOffset" : 23664
        },
        {
            "buffer" : 0,
            "byteLength" : 29580,
            "byteOffset" : 26040
        },
        {
            "buffer" : 0,
            "byteLength" : 29580,
            "byteOffset" : 55620
        },
        {
            "buffer" : 0,
            "byteLength" : 7314,
            "byteOffset" : 85200
        }
    ],
    "buffers" : [
        {
            "byteLength" : 92516,
            "uri" : "data:application/octet-stream;base64,"
        }
    ]
}
