{
    "asset" : {
        "generator" : "Khronos glTF Blender I/O v1.8.19",
        "version" : "2.0"
    },
    "scene" : 0,
    "scenes" : [
        {
            "name" : "Scene",
            "nodes" : [
                0
            ]
        }
    ],
    "nodes" : [
        {
            "mesh" : 0,
            "name" : "Pine_Tree",
            "rotation" : [
                -0.7071068286895752,
                0,
                0,
                0.7071067094802856
            ],
            "scale" : [
                198.36282348632812,
                198.36282348632812,
                198.36282348632812
            ],
            "translation" : [
                -0.003491126000881195,
                0,
                0.015668435022234917
            ]
        }
    ],
    "animations" : [
        {
            "channels" : [
                {
                    "sampler" : 0,
                    "target" : {
                        "node" : 0,
                        "path" : "weights"
                    }
                }
            ],
            "name" : "KeyAction",
            "samplers" : [
                {
                    "input" : 10,
                    "interpolation" : "LINEAR",
                    "output" : 11
                }
            ]
        }
    ],
    "materials" : [
        {
            "name" : "Wood.001",
            "pbrMetallicRoughness" : {
                "baseColorFactor" : [
                    0.12234093993902206,
                    0.05628808215260506,
                    0.04760899767279625,
                    1
                ],
                "metallicFactor" : 0.4000000059604645,
                "roughnessFactor" : 0.41508710384368896
            }
        },
        {
            "name" : "Green",
            "pbrMetallicRoughness" : {
                "baseColorFactor" : [
                    0.069953553378582,
                    0.12185650318861008,
                    0.04788811132311821,
                    1
                ],
                "metallicFactor" : 0.4000000059604645,
                "roughnessFactor" : 0.41508710384368896
            }
        }
    ],
    "meshes" : [
        {
            "extras" : {
                "targetNames" : [
                    "Sway"
                ]
            },
            "name" : "Pine_Tree",
            "primitives" : [
                {
                    "attributes" : {
                        "POSITION" : 0,
                        "NORMAL" : 1
                    },
                    "indices" : 2,
                    "material" : 0,
                    "targets" : [
                        {
                            "POSITION" : 3,
                            "NORMAL" : 4
                        }
                    ]
                },
                {
                    "attributes" : {
                        "POSITION" : 5,
                        "NORMAL" : 6
                    },
                    "indices" : 7,
                    "material" : 1,
                    "targets" : [
                        {
                            "POSITION" : 8,
                            "NORMAL" : 9
                        }
                    ]
                }
            ],
            "weights" : [
                0
            ]
        }
    ],
    "accessors" : [
        {
            "bufferView" : 0,
            "componentType" : 5126,
            "count" : 150,
            "max" : [
                0.002570822136476636,
                0.0022581140510737896,
                0.03126630187034607
            ],
            "min" : [
                -0.0019870137330144644,
                -0.0018690836150199175,
                -0.00016416622383985668
            ],
            "type" : "VEC3"
        },
        {
            "bufferView" : 1,
            "componentType" : 5126,
            "count" : 150,
            "type" : "VEC3"
        },
        {
            "bufferView" : 2,
            "componentType" : 5123,
            "count" : 204,
            "type" : "SCALAR"
        },
        {
            "bufferView" : 3,
            "componentType" : 5126,
            "count" : 150,
            "max" : [
                6.607850082218647e-06,
                2.0873267203569412e-07,
                9.844917804002762e-05
            ],
            "min" : [
                -0.0009834652300924063,
                -5.7084253057837486e-05,
                -8.715316653251648e-06
            ],
            "type" : "VEC3"
        },
        {
            "bufferView" : 4,
            "componentType" : 5126,
            "count" : 150,
            "type" : "VEC3"
        },
        {
            "bufferView" : 5,
            "componentType" : 5126,
            "count" : 3317,
            "max" : [
                0.008180522359907627,
                0.010164448991417885,
                0.035482700914144516
            ],
            "min" : [
                -0.009791156277060509,
                -0.009410591796040535,
                0.004153781570494175
            ],
            "type" : "VEC3"
        },
        {
            "bufferView" : 6,
            "componentType" : 5126,
            "count" : 3317,
            "type" : "VEC3"
        },
        {
            "bufferView" : 7,
            "componentType" : 5123,
            "count" : 4839,
            "type" : "SCALAR"
        },
        {
            "bufferView" : 8,
            "componentType" : 5126,
            "count" : 3317,
            "max" : [
                0.0012719426304101944,
                0.00016297679394483566,
                0.0017347927205264568
            ],
            "min" : [
                -0.0010401729959994555,
                -0.00010791380191221833,
                -0.0009562373161315918
            ],
            "type" : "VEC3"
        },
        {
            "bufferView" : 9,
            "componentType" : 5126,
            "count" : 3317,
            "type" : "VEC3"
        },
        {
            "bufferView" : 10,
            "componentType" : 5126,
            "count" : 120,
            "max" : [
                5
            ],
            "min" : [
                0.041666666666666664
            ],
            "type" : "SCALAR"
        },
        {
            "bufferView" : 11,
            "componentType" : 5126,
            "count" : 120,
            "type" : "SCALAR"
        }
    ],
    "bufferViews" : [
        {
            "buffer" : 0,
            "byteLength" : 1800,
            "byteOffset" : 0
        },
        {
            "buffer" : 0,
            "byteLength" : 1800,
            "byteOffset" : 1800
        },
        {
            "buffer" : 0,
            "byteLength" : 408,
            "byteOffset" : 3600
        },
        {
            "buffer" : 0,
            "byteLength" : 1800,
            "byteOffset" : 4008
        },
        {
            "buffer" : 0,
            "byteLength" : 1800,
            "byteOffset" : 5808
        },
        {
            "buffer" : 0,
            "byteLength" : 39804,
            "byteOffset" : 7608
        },
        {
            "buffer" : 0,
            "byteLength" : 39804,
            "byteOffset" : 47412
        },
        {
            "buffer" : 0,
            "byteLength" : 9678,
            "byteOffset" : 87216
        },
        {
            "buffer" : 0,
            "byteLength" : 39804,
            "byteOffset" : 96896
        },
        {
            "buffer" : 0,
            "byteLength" : 39804,
            "byteOffset" : 136700
        },
        {
            "buffer" : 0,
            "byteLength" : 480,
            "byteOffset" : 176504
        },
        {
            "buffer" : 0,
            "byteLength" : 480,
            "byteOffset" : 176984
        }
    ],
    "buffers" : [
        {
            "byteLength" : 177464,
            "uri" : "data:application/octet-stream;base64,"
        }
    ]
}
