{
    "asset" : {
        "generator" : "Khronos glTF Blender I/O v1.8.19",
        "version" : "2.0"
    },
    "scene" : 0,
    "scenes" : [
        {
            "name" : "Scene",
            "nodes" : [
                0
            ]
        }
    ],
    "nodes" : [
        {
            "mesh" : 0,
            "name" : "Tree_Fall",
            "rotation" : [
                -0.7071068286895752,
                0,
                0,
                0.7071067094802856
            ],
            "scale" : [
                244.40948486328125,
                244.40948486328125,
                244.40948486328125
            ],
            "translation" : [
                -0.003491126000881195,
                0,
                0.015668435022234917
            ]
        }
    ],
    "materials" : [
        {
            "name" : "Wood",
            "pbrMetallicRoughness" : {
                "baseColorFactor" : [
                    0.12234093993902206,
                    0.05628808215260506,
                    0.04760899767279625,
                    1
                ],
                "metallicFactor" : 0.4000000059604645,
                "roughnessFactor" : 0.41508710384368896
            }
        },
        {
            "name" : "Orange",
            "pbrMetallicRoughness" : {
                "baseColorFactor" : [
                    0.39753589034080505,
                    0.15940465033054352,
                    0.05872540548443794,
                    1
                ],
                "metallicFactor" : 0.4000000059604645,
                "roughnessFactor" : 0.41508710384368896
            }
        },
        {
            "name" : "LightOrange",
            "pbrMetallicRoughness" : {
                "baseColorFactor" : [
                    0.4390780031681061,
                    0.26335248351097107,
                    0.08413796871900558,
                    1
                ],
                "metallicFactor" : 0.4000000059604645,
                "roughnessFactor" : 0.41508710384368896
            }
        }
    ],
    "meshes" : [
        {
            "name" : "CommonTree_Autumn_2",
            "primitives" : [
                {
                    "attributes" : {
                        "POSITION" : 0,
                        "NORMAL" : 1
                    },
                    "indices" : 2,
                    "material" : 0
                },
                {
                    "attributes" : {
                        "POSITION" : 3,
                        "NORMAL" : 4
                    },
                    "indices" : 5,
                    "material" : 1
                },
                {
                    "attributes" : {
                        "POSITION" : 6,
                        "NORMAL" : 7
                    },
                    "indices" : 8,
                    "material" : 2
                }
            ]
        }
    ],
    "accessors" : [
        {
            "bufferView" : 0,
            "componentType" : 5126,
            "count" : 4760,
            "max" : [
                0.0063056969083845615,
                0.00602727709338069,
                0.02905138209462166
            ],
            "min" : [
                -0.006992484908550978,
                -0.012621443718671799,
                -0.0005404417752288282
            ],
            "type" : "VEC3"
        },
        {
            "bufferView" : 1,
            "componentType" : 5126,
            "count" : 4760,
            "type" : "VEC3"
        },
        {
            "bufferView" : 2,
            "componentType" : 5123,
            "count" : 7080,
            "type" : "SCALAR"
        },
        {
            "bufferView" : 3,
            "componentType" : 5126,
            "count" : 654,
            "max" : [
                0.007532611954957247,
                -0.0018725120462477207,
                0.025328537449240685
            ],
            "min" : [
                -0.0071603539399802685,
                -0.01603708043694496,
                0.013959357514977455
            ],
            "type" : "VEC3"
        },
        {
            "bufferView" : 4,
            "componentType" : 5126,
            "count" : 654,
            "type" : "VEC3"
        },
        {
            "bufferView" : 5,
            "componentType" : 5123,
            "count" : 978,
            "type" : "SCALAR"
        },
        {
            "bufferView" : 6,
            "componentType" : 5126,
            "count" : 528,
            "max" : [
                0.008433607406914234,
                0.0093720443546772,
                0.03068746253848076
            ],
            "min" : [
                -0.008198280818760395,
                -0.00935196690261364,
                0.018003903329372406
            ],
            "type" : "VEC3"
        },
        {
            "bufferView" : 7,
            "componentType" : 5126,
            "count" : 528,
            "type" : "VEC3"
        },
        {
            "bufferView" : 8,
            "componentType" : 5123,
            "count" : 792,
            "type" : "SCALAR"
        }
    ],
    "bufferViews" : [
        {
            "buffer" : 0,
            "byteLength" : 57120,
            "byteOffset" : 0
        },
        {
            "buffer" : 0,
            "byteLength" : 57120,
            "byteOffset" : 57120
        },
        {
            "buffer" : 0,
            "byteLength" : 14160,
            "byteOffset" : 114240
        },
        {
            "buffer" : 0,
            "byteLength" : 7848,
            "byteOffset" : 128400
        },
        {
            "buffer" : 0,
            "byteLength" : 7848,
            "byteOffset" : 136248
        },
        {
            "buffer" : 0,
            "byteLength" : 1956,
            "byteOffset" : 144096
        },
        {
            "buffer" : 0,
            "byteLength" : 6336,
            "byteOffset" : 146052
        },
        {
            "buffer" : 0,
            "byteLength" : 6336,
            "byteOffset" : 152388
        },
        {
            "buffer" : 0,
            "byteLength" : 1584,
            "byteOffset" : 158724
        }
    ],
    "buffers" : [
        {
            "byteLength" : 160308,
            "uri" : "data:application/octet-stream;base64,"
        }
    ]
}
