{
    "asset" : {
        "generator" : "Khronos glTF Blender I/O v1.8.19",
        "version" : "2.0"
    },
    "scene" : 0,
    "scenes" : [
        {
            "name" : "Scene",
            "nodes" : [
                0
            ]
        }
    ],
    "nodes" : [
        {
            "mesh" : 0,
            "name" : "Tree",
            "rotation" : [
                -0.7071068286895752,
                0,
                0,
                0.7071067094802856
            ],
            "scale" : [
                276.1832275390625,
                276.1832275390625,
                276.1832275390625
            ],
            "translation" : [
                0.039178717881441116,
                0,
                -0.17583701014518738
            ]
        }
    ],
    "materials" : [
        {
            "name" : "Wood.004",
            "pbrMetallicRoughness" : {
                "baseColorFactor" : [
                    0.12234093993902206,
                    0.05628808215260506,
                    0.04760899767279625,
                    1
                ],
                "metallicFactor" : 0.4000000059604645,
                "roughnessFactor" : 0.41508710384368896
            }
        },
        {
            "name" : "Green.002",
            "pbrMetallicRoughness" : {
                "baseColorFactor" : [
                    0.069953553378582,
                    0.12185650318861008,
                    0.04788811132311821,
                    1
                ],
                "metallicFactor" : 0.4000000059604645,
                "roughnessFactor" : 0.41508710384368896
            }
        }
    ],
    "meshes" : [
        {
            "name" : "CommonTree_1",
            "primitives" : [
                {
                    "attributes" : {
                        "POSITION" : 0,
                        "NORMAL" : 1
                    },
                    "indices" : 2,
                    "material" : 0
                },
                {
                    "attributes" : {
                        "POSITION" : 3,
                        "NORMAL" : 4
                    },
                    "indices" : 5,
                    "material" : 1
                }
            ]
        }
    ],
    "accessors" : [
        {
            "bufferView" : 0,
            "componentType" : 5126,
            "count" : 4760,
            "max" : [
                0.004954143892973661,
                0.00965383742004633,
                0.021783599629998207
            ],
            "min" : [
                -0.005493726581335068,
                -0.011546135880053043,
                -0.00042460428085178137
            ],
            "type" : "VEC3"
        },
        {
            "bufferView" : 1,
            "componentType" : 5126,
            "count" : 4760,
            "type" : "VEC3"
        },
        {
            "bufferView" : 2,
            "componentType" : 5123,
            "count" : 7080,
            "type" : "SCALAR"
        },
        {
            "bufferView" : 3,
            "componentType" : 5126,
            "count" : 1056,
            "max" : [
                0.00971231795847416,
                0.01174338348209858,
                0.024381011724472046
            ],
            "min" : [
                -0.009178823791444302,
                -0.015987975522875786,
                0.013784047216176987
            ],
            "type" : "VEC3"
        },
        {
            "bufferView" : 4,
            "componentType" : 5126,
            "count" : 1056,
            "type" : "VEC3"
        },
        {
            "bufferView" : 5,
            "componentType" : 5123,
            "count" : 1584,
            "type" : "SCALAR"
        }
    ],
    "bufferViews" : [
        {
            "buffer" : 0,
            "byteLength" : 57120,
            "byteOffset" : 0
        },
        {
            "buffer" : 0,
            "byteLength" : 57120,
            "byteOffset" : 57120
        },
        {
            "buffer" : 0,
            "byteLength" : 14160,
            "byteOffset" : 114240
        },
        {
            "buffer" : 0,
            "byteLength" : 12672,
            "byteOffset" : 128400
        },
        {
            "buffer" : 0,
            "byteLength" : 12672,
            "byteOffset" : 141072
        },
        {
            "buffer" : 0,
            "byteLength" : 3168,
            "byteOffset" : 153744
        }
    ],
    "buffers" : [
        {
            "byteLength" : 156912,
            "uri" : "data:application/octet-stream;base64,"
        }
    ]
}
