{
    "asset" : {
        "generator" : "Khronos glTF Blender I/O v1.8.19",
        "version" : "2.0"
    },
    "scene" : 0,
    "scenes" : [
        {
            "name" : "Scene",
            "nodes" : [
                1
            ]
        }
    ],
    "nodes" : [
        {
            "mesh" : 0,
            "name" : "Rock_Snow_2",
            "rotation" : [
                -0.7071068286895752,
                0,
                0,
                0.7071067094802856
            ],
            "scale" : [
                100,
                100,
                100
            ]
        },
        {
            "children" : [
                0
            ],
            "name" : "RootNode.001"
        }
    ],
    "materials" : [
        {
            "name" : "Rock.001",
            "pbrMetallicRoughness" : {
                "baseColorFactor" : [
                    0.19536897540092468,
                    0.20660971105098724,
                    0.24255616962909698,
                    1
                ],
                "metallicFactor" : 0.4000000059604645,
                "roughnessFactor" : 0.41508710384368896
            }
        },
        {
            "name" : "Snow.001",
            "pbrMetallicRoughness" : {
                "baseColorFactor" : [
                    0.4023091793060303,
                    0.3606286942958832,
                    0.4216921925544739,
                    1
                ],
                "metallicFactor" : 0.4000000059604645,
                "roughnessFactor" : 0.41508710384368896
            }
        }
    ],
    "meshes" : [
        {
            "name" : "Rock_Snow_2",
            "primitives" : [
                {
                    "attributes" : {
                        "POSITION" : 0,
                        "NORMAL" : 1
                    },
                    "indices" : 2,
                    "material" : 0
                },
                {
                    "attributes" : {
                        "POSITION" : 3,
                        "NORMAL" : 4
                    },
                    "indices" : 5,
                    "material" : 1
                }
            ]
        }
    ],
    "accessors" : [
        {
            "bufferView" : 0,
            "componentType" : 5126,
            "count" : 150,
            "max" : [
                0.003481070278212428,
                0.0035555362701416016,
                0.005546564236283302
            ],
            "min" : [
                -0.0026443887036293745,
                -0.0029487258289009333,
                -0.0013709745835512877
            ],
            "type" : "VEC3"
        },
        {
            "bufferView" : 1,
            "componentType" : 5126,
            "count" : 150,
            "type" : "VEC3"
        },
        {
            "bufferView" : 2,
            "componentType" : 5123,
            "count" : 204,
            "type" : "SCALAR"
        },
        {
            "bufferView" : 3,
            "componentType" : 5126,
            "count" : 136,
            "max" : [
                0.002714891918003559,
                0.0027296205516904593,
                0.005833754315972328
            ],
            "min" : [
                -0.0024527772329747677,
                -0.0024474880192428827,
                0.0005519774276763201
            ],
            "type" : "VEC3"
        },
        {
            "bufferView" : 4,
            "componentType" : 5126,
            "count" : 136,
            "type" : "VEC3"
        },
        {
            "bufferView" : 5,
            "componentType" : 5123,
            "count" : 150,
            "type" : "SCALAR"
        }
    ],
    "bufferViews" : [
        {
            "buffer" : 0,
            "byteLength" : 1800,
            "byteOffset" : 0
        },
        {
            "buffer" : 0,
            "byteLength" : 1800,
            "byteOffset" : 1800
        },
        {
            "buffer" : 0,
            "byteLength" : 408,
            "byteOffset" : 3600
        },
        {
            "buffer" : 0,
            "byteLength" : 1632,
            "byteOffset" : 4008
        },
        {
            "buffer" : 0,
            "byteLength" : 1632,
            "byteOffset" : 5640
        },
        {
            "buffer" : 0,
            "byteLength" : 300,
            "byteOffset" : 7272
        }
    ],
    "buffers" : [
        {
            "byteLength" : 7572,
            "uri" : "data:application/octet-stream;base64,"
        }
    ]
}
