{
    "asset" : {
        "generator" : "Khronos glTF Blender I/O v1.8.19",
        "version" : "2.0"
    },
    "scene" : 0,
    "scenes" : [
        {
            "name" : "Scene",
            "nodes" : [
                0
            ]
        }
    ],
    "nodes" : [
        {
            "mesh" : 0,
            "name" : "Cloud",
            "scale" : [
                50.429588317871094,
                50.429588317871094,
                50.429588317871094
            ]
        }
    ],
    "materials" : [
        {
            "name" : "mat21",
            "pbrMetallicRoughness" : {
                "metallicFactor" : 0
            }
        }
    ],
    "meshes" : [
        {
            "name" : "Cloud",
            "primitives" : [
                {
                    "attributes" : {
                        "POSITION" : 0,
                        "NORMAL" : 1
                    },
                    "indices" : 2,
                    "material" : 0
                }
            ]
        }
    ],
    "accessors" : [
        {
            "bufferView" : 0,
            "componentType" : 5126,
            "count" : 7548,
            "max" : [
                0.46284329891204834,
                0.23345449566841125,
                0.07357574254274368
            ],
            "min" : [
                -0.4248833954334259,
                -0.1542053073644638,
                -0.11159010231494904
            ],
            "type" : "VEC3"
        },
        {
            "bufferView" : 1,
            "componentType" : 5126,
            "count" : 7548,
            "type" : "VEC3"
        },
        {
            "bufferView" : 2,
            "componentType" : 5123,
            "count" : 10356,
            "type" : "SCALAR"
        }
    ],
    "bufferViews" : [
        {
            "buffer" : 0,
            "byteLength" : 90576,
            "byteOffset" : 0
        },
        {
            "buffer" : 0,
            "byteLength" : 90576,
            "byteOffset" : 90576
        },
        {
            "buffer" : 0,
            "byteLength" : 20712,
            "byteOffset" : 181152
        }
    ],
    "buffers" : [
        {
            "byteLength" : 201864,
            "uri" : "data:application/octet-stream;base64,"
        }
    ]
}
